<mxfile host="app.diagrams.net" modified="2023-09-05T07:39:48.701Z" agent="Mozilla/5.0 (Windows NT 10.0; Win64; x64) AppleWebKit/537.36 (KHTML, like Gecko) Chrome/116.0.0.0 Safari/537.36" etag="ZlThr38Tczd0o51aiAUj" version="21.7.2" type="device">
  <diagram name="Pagina-1" id="xpztM5f_pi8wm7y8aDso">
    <mxGraphModel dx="1391" dy="1654" grid="1" gridSize="10" guides="1" tooltips="1" connect="1" arrows="1" fold="1" page="1" pageScale="1" pageWidth="850" pageHeight="1100" math="0" shadow="0">
      <root>
        <mxCell id="0" />
        <mxCell id="1" parent="0" />
        <mxCell id="3jA4T_E-AxmOKRRC3q80-51" style="edgeStyle=none;rounded=0;orthogonalLoop=1;jettySize=auto;html=1;exitX=0.5;exitY=0;exitDx=0;exitDy=0;fillColor=#FFCC99;strokeColor=#FFB570;" parent="1" source="3jA4T_E-AxmOKRRC3q80-7" target="3jA4T_E-AxmOKRRC3q80-15" edge="1">
          <mxGeometry relative="1" as="geometry">
            <mxPoint x="429.81999999999994" y="109.428" as="targetPoint" />
          </mxGeometry>
        </mxCell>
        <mxCell id="3jA4T_E-AxmOKRRC3q80-7" value="&lt;i&gt;ics:Class&lt;/i&gt;" style="swimlane;fontStyle=0;childLayout=stackLayout;horizontal=1;startSize=26;fillColor=none;horizontalStack=0;resizeParent=1;resizeParentMax=0;resizeLast=0;collapsible=1;marginBottom=0;whiteSpace=wrap;html=1;" parent="1" vertex="1">
          <mxGeometry x="20" y="200" width="180" height="52" as="geometry">
            <mxRectangle x="20" y="200" width="100" height="30" as="alternateBounds" />
          </mxGeometry>
        </mxCell>
        <mxCell id="3jA4T_E-AxmOKRRC3q80-37" value="+ notation: &amp;lt;&amp;lt;xsd:string&amp;gt;&amp;gt;" style="text;strokeColor=none;fillColor=none;align=left;verticalAlign=top;spacingLeft=4;spacingRight=4;overflow=hidden;rotatable=0;points=[[0,0.5],[1,0.5]];portConstraint=eastwest;whiteSpace=wrap;html=1;" parent="3jA4T_E-AxmOKRRC3q80-7" vertex="1">
          <mxGeometry y="26" width="180" height="26" as="geometry" />
        </mxCell>
        <mxCell id="3jA4T_E-AxmOKRRC3q80-15" value="&lt;i&gt;skos:Concept&lt;/i&gt;" style="swimlane;fontStyle=0;childLayout=stackLayout;horizontal=1;startSize=26;fillColor=none;horizontalStack=0;resizeParent=1;resizeParentMax=0;resizeLast=0;collapsible=1;marginBottom=0;whiteSpace=wrap;html=1;" parent="1" vertex="1">
          <mxGeometry x="340" y="10" width="180" height="52" as="geometry">
            <mxRectangle x="110" y="60" width="100" height="30" as="alternateBounds" />
          </mxGeometry>
        </mxCell>
        <mxCell id="3jA4T_E-AxmOKRRC3q80-16" value="+ prefLabel: &amp;lt;&amp;lt;xsd:string&amp;gt;&amp;gt;" style="text;strokeColor=none;fillColor=none;align=left;verticalAlign=top;spacingLeft=4;spacingRight=4;overflow=hidden;rotatable=0;points=[[0,0.5],[1,0.5]];portConstraint=eastwest;whiteSpace=wrap;html=1;" parent="3jA4T_E-AxmOKRRC3q80-15" vertex="1">
          <mxGeometry y="26" width="180" height="26" as="geometry" />
        </mxCell>
        <mxCell id="_2NLz3mNn9JSnbvIPV1x-2" style="edgeStyle=orthogonalEdgeStyle;rounded=0;orthogonalLoop=1;jettySize=auto;elbow=vertical;html=1;endArrow=block;endFill=0;exitX=1;exitY=-0.018;exitDx=0;exitDy=0;exitPerimeter=0;" edge="1" parent="3jA4T_E-AxmOKRRC3q80-15">
          <mxGeometry relative="1" as="geometry">
            <mxPoint x="140" as="targetPoint" />
            <mxPoint x="180" y="35.531999999999925" as="sourcePoint" />
            <Array as="points">
              <mxPoint x="180" y="30" />
              <mxPoint x="220" y="30" />
              <mxPoint x="220" y="-50" />
              <mxPoint x="140" y="-50" />
            </Array>
          </mxGeometry>
        </mxCell>
        <mxCell id="3jA4T_E-AxmOKRRC3q80-19" value="&lt;i&gt;docs:Document&lt;/i&gt;" style="swimlane;fontStyle=0;childLayout=stackLayout;horizontal=1;startSize=26;fillColor=none;horizontalStack=0;resizeParent=1;resizeParentMax=0;resizeLast=0;collapsible=1;marginBottom=0;whiteSpace=wrap;html=1;" parent="1" vertex="1">
          <mxGeometry x="340" y="200" width="180" height="156" as="geometry">
            <mxRectangle x="340" y="200" width="100" height="30" as="alternateBounds" />
          </mxGeometry>
        </mxCell>
        <mxCell id="3jA4T_E-AxmOKRRC3q80-21" value="+ title: &amp;lt;&amp;lt;xsd:string&amp;gt;&amp;gt;" style="text;strokeColor=none;fillColor=none;align=left;verticalAlign=top;spacingLeft=4;spacingRight=4;overflow=hidden;rotatable=0;points=[[0,0.5],[1,0.5]];portConstraint=eastwest;whiteSpace=wrap;html=1;" parent="3jA4T_E-AxmOKRRC3q80-19" vertex="1">
          <mxGeometry y="26" width="180" height="26" as="geometry" />
        </mxCell>
        <mxCell id="3jA4T_E-AxmOKRRC3q80-83" value="+ language: &amp;lt;&amp;lt;xsd:string&amp;gt;&amp;gt;" style="text;strokeColor=none;fillColor=none;align=left;verticalAlign=top;spacingLeft=4;spacingRight=4;overflow=hidden;rotatable=0;points=[[0,0.5],[1,0.5]];portConstraint=eastwest;whiteSpace=wrap;html=1;" parent="3jA4T_E-AxmOKRRC3q80-19" vertex="1">
          <mxGeometry y="52" width="180" height="26" as="geometry" />
        </mxCell>
        <mxCell id="3jA4T_E-AxmOKRRC3q80-81" value="+ publisher: &amp;lt;&amp;lt;xsd:string&amp;gt;&amp;gt;" style="text;strokeColor=none;fillColor=none;align=left;verticalAlign=top;spacingLeft=4;spacingRight=4;overflow=hidden;rotatable=0;points=[[0,0.5],[1,0.5]];portConstraint=eastwest;whiteSpace=wrap;html=1;" parent="3jA4T_E-AxmOKRRC3q80-19" vertex="1">
          <mxGeometry y="78" width="180" height="26" as="geometry" />
        </mxCell>
        <mxCell id="3jA4T_E-AxmOKRRC3q80-20" value="+ issued: &amp;lt;&amp;lt;xsd:date&amp;gt;&amp;gt;" style="text;strokeColor=none;fillColor=none;align=left;verticalAlign=top;spacingLeft=4;spacingRight=4;overflow=hidden;rotatable=0;points=[[0,0.5],[1,0.5]];portConstraint=eastwest;whiteSpace=wrap;html=1;" parent="3jA4T_E-AxmOKRRC3q80-19" vertex="1">
          <mxGeometry y="104" width="180" height="26" as="geometry" />
        </mxCell>
        <mxCell id="3jA4T_E-AxmOKRRC3q80-86" value="+ deprecated: &amp;lt;&amp;lt;xsd:boolean&amp;gt;&amp;gt;" style="text;strokeColor=none;fillColor=none;align=left;verticalAlign=top;spacingLeft=4;spacingRight=4;overflow=hidden;rotatable=0;points=[[0,0.5],[1,0.5]];portConstraint=eastwest;whiteSpace=wrap;html=1;" parent="3jA4T_E-AxmOKRRC3q80-19" vertex="1">
          <mxGeometry y="130" width="180" height="26" as="geometry" />
        </mxCell>
        <mxCell id="_2NLz3mNn9JSnbvIPV1x-6" style="edgeStyle=orthogonalEdgeStyle;rounded=0;orthogonalLoop=1;jettySize=auto;elbow=vertical;html=1;endArrow=block;endFill=0;exitX=1;exitY=0.5;exitDx=0;exitDy=0;" edge="1" parent="3jA4T_E-AxmOKRRC3q80-19" source="3jA4T_E-AxmOKRRC3q80-20">
          <mxGeometry relative="1" as="geometry">
            <mxPoint x="140" y="160" as="targetPoint" />
            <mxPoint x="170" y="210" as="sourcePoint" />
            <Array as="points">
              <mxPoint x="180" y="120" />
              <mxPoint x="220" y="120" />
              <mxPoint x="220" y="210" />
              <mxPoint x="140" y="210" />
              <mxPoint x="140" y="160" />
            </Array>
          </mxGeometry>
        </mxCell>
        <mxCell id="3jA4T_E-AxmOKRRC3q80-23" value="&lt;i&gt;vocab:Concept&lt;/i&gt;" style="swimlane;fontStyle=0;childLayout=stackLayout;horizontal=1;startSize=26;fillColor=none;horizontalStack=0;resizeParent=1;resizeParentMax=0;resizeLast=0;collapsible=1;marginBottom=0;whiteSpace=wrap;html=1;" parent="1" vertex="1">
          <mxGeometry x="660" y="200" width="180" height="52" as="geometry">
            <mxRectangle x="110" y="60" width="100" height="30" as="alternateBounds" />
          </mxGeometry>
        </mxCell>
        <mxCell id="3jA4T_E-AxmOKRRC3q80-25" value="+ definition: &amp;lt;&amp;lt;xsd:string&amp;gt;&amp;gt;" style="text;strokeColor=none;fillColor=none;align=left;verticalAlign=top;spacingLeft=4;spacingRight=4;overflow=hidden;rotatable=0;points=[[0,0.5],[1,0.5]];portConstraint=eastwest;whiteSpace=wrap;html=1;" parent="3jA4T_E-AxmOKRRC3q80-23" vertex="1">
          <mxGeometry y="26" width="180" height="26" as="geometry" />
        </mxCell>
        <mxCell id="3jA4T_E-AxmOKRRC3q80-28" value="hasConcept" style="endArrow=block;endFill=0;html=1;rounded=0;exitX=1;exitY=0.5;exitDx=0;exitDy=0;" parent="1" edge="1">
          <mxGeometry width="160" relative="1" as="geometry">
            <mxPoint x="520" y="216" as="sourcePoint" />
            <mxPoint x="660" y="217" as="targetPoint" />
            <mxPoint as="offset" />
          </mxGeometry>
        </mxCell>
        <mxCell id="3jA4T_E-AxmOKRRC3q80-29" value="inDocument" style="endArrow=block;endFill=0;html=1;rounded=0;entryX=1.004;entryY=1.064;entryDx=0;entryDy=0;entryPerimeter=0;" parent="1" edge="1">
          <mxGeometry x="0.0052" width="160" relative="1" as="geometry">
            <mxPoint x="660" y="237" as="sourcePoint" />
            <mxPoint x="520.72" y="236.664" as="targetPoint" />
            <Array as="points">
              <mxPoint x="600" y="237" />
            </Array>
            <mxPoint as="offset" />
          </mxGeometry>
        </mxCell>
        <mxCell id="3jA4T_E-AxmOKRRC3q80-32" value="hasDocument" style="endArrow=block;endFill=0;html=1;rounded=0;exitX=1;exitY=0.5;exitDx=0;exitDy=0;" parent="1" edge="1">
          <mxGeometry width="160" relative="1" as="geometry">
            <mxPoint x="200" y="218" as="sourcePoint" />
            <mxPoint x="340" y="219" as="targetPoint" />
          </mxGeometry>
        </mxCell>
        <mxCell id="3jA4T_E-AxmOKRRC3q80-33" value="memberOf" style="endArrow=block;endFill=0;html=1;rounded=0;entryX=1.004;entryY=1.064;entryDx=0;entryDy=0;entryPerimeter=0;" parent="1" edge="1">
          <mxGeometry x="0.0072" width="160" relative="1" as="geometry">
            <mxPoint x="340" y="237" as="sourcePoint" />
            <mxPoint x="201" y="237" as="targetPoint" />
            <mxPoint as="offset" />
          </mxGeometry>
        </mxCell>
        <mxCell id="3jA4T_E-AxmOKRRC3q80-54" style="edgeStyle=none;rounded=0;orthogonalLoop=1;jettySize=auto;html=1;exitX=0.5;exitY=0;exitDx=0;exitDy=0;fillColor=#FFCC99;strokeColor=#FFB570;" parent="1" source="3jA4T_E-AxmOKRRC3q80-19" target="3jA4T_E-AxmOKRRC3q80-16" edge="1">
          <mxGeometry relative="1" as="geometry">
            <mxPoint x="120" y="210" as="sourcePoint" />
            <mxPoint x="389" y="72" as="targetPoint" />
          </mxGeometry>
        </mxCell>
        <mxCell id="3jA4T_E-AxmOKRRC3q80-55" style="edgeStyle=none;rounded=0;orthogonalLoop=1;jettySize=auto;html=1;exitX=0.549;exitY=-0.009;exitDx=0;exitDy=0;fillColor=#FFCC99;strokeColor=#FFB570;exitPerimeter=0;" parent="1" source="3jA4T_E-AxmOKRRC3q80-23" target="3jA4T_E-AxmOKRRC3q80-15" edge="1">
          <mxGeometry relative="1" as="geometry">
            <mxPoint x="130" y="220" as="sourcePoint" />
            <mxPoint x="399" y="82" as="targetPoint" />
          </mxGeometry>
        </mxCell>
        <mxCell id="3jA4T_E-AxmOKRRC3q80-62" value="&lt;font style=&quot;font-size: 11px;&quot;&gt;isReplacedBy&lt;/font&gt;" style="text;html=1;align=left;verticalAlign=middle;resizable=0;points=[];autosize=1;strokeColor=none;fillColor=none;" parent="1" vertex="1">
          <mxGeometry x="570" y="338" width="90" height="30" as="geometry" />
        </mxCell>
        <mxCell id="3jA4T_E-AxmOKRRC3q80-69" value="&lt;font style=&quot;font-size: 11px;&quot;&gt;replaces&lt;/font&gt;" style="text;html=1;align=left;verticalAlign=middle;resizable=0;points=[];autosize=1;strokeColor=none;fillColor=none;" parent="1" vertex="1">
          <mxGeometry x="570" y="311" width="70" height="30" as="geometry" />
        </mxCell>
        <mxCell id="3jA4T_E-AxmOKRRC3q80-76" value="&lt;font style=&quot;font-size: 11px;&quot;&gt;isPartOf&lt;/font&gt;" style="text;html=1;align=left;verticalAlign=middle;resizable=0;points=[];autosize=1;strokeColor=none;fillColor=none;" parent="1" vertex="1">
          <mxGeometry x="570" y="392" width="60" height="30" as="geometry" />
        </mxCell>
        <mxCell id="3jA4T_E-AxmOKRRC3q80-77" value="&lt;font style=&quot;font-size: 11px;&quot;&gt;hasPart&lt;/font&gt;" style="text;html=1;align=left;verticalAlign=middle;resizable=0;points=[];autosize=1;strokeColor=none;fillColor=none;" parent="1" vertex="1">
          <mxGeometry x="570" y="365" width="60" height="30" as="geometry" />
        </mxCell>
        <mxCell id="_2NLz3mNn9JSnbvIPV1x-9" value="inICS" style="endArrow=block;endFill=0;html=1;rounded=0;exitX=0.528;exitY=1.124;exitDx=0;exitDy=0;exitPerimeter=0;edgeStyle=orthogonalEdgeStyle;" edge="1" parent="1">
          <mxGeometry x="0.0072" width="160" relative="1" as="geometry">
            <mxPoint x="754.54" y="252.0039999999999" as="sourcePoint" />
            <mxPoint x="100" y="252" as="targetPoint" />
            <mxPoint as="offset" />
            <Array as="points">
              <mxPoint x="755" y="439" />
              <mxPoint x="101" y="439" />
              <mxPoint x="101" y="283" />
              <mxPoint x="100" y="283" />
            </Array>
          </mxGeometry>
        </mxCell>
        <mxCell id="_2NLz3mNn9JSnbvIPV1x-3" value="&lt;font style=&quot;font-size: 11px;&quot;&gt;broader&lt;/font&gt;" style="text;html=1;align=left;verticalAlign=middle;resizable=0;points=[];autosize=1;strokeColor=none;fillColor=none;" vertex="1" parent="1">
          <mxGeometry x="570" y="-50" width="60" height="30" as="geometry" />
        </mxCell>
        <mxCell id="_2NLz3mNn9JSnbvIPV1x-4" value="&lt;font style=&quot;font-size: 11px;&quot;&gt;narrower&lt;/font&gt;" style="text;html=1;align=left;verticalAlign=middle;resizable=0;points=[];autosize=1;strokeColor=none;fillColor=none;" vertex="1" parent="1">
          <mxGeometry x="570" y="-23" width="70" height="30" as="geometry" />
        </mxCell>
        <mxCell id="_2NLz3mNn9JSnbvIPV1x-5" value="&lt;font style=&quot;font-size: 11px;&quot;&gt;related&lt;/font&gt;" style="text;html=1;align=left;verticalAlign=middle;resizable=0;points=[];autosize=1;strokeColor=none;fillColor=none;" vertex="1" parent="1">
          <mxGeometry x="570" y="4" width="60" height="30" as="geometry" />
        </mxCell>
      </root>
    </mxGraphModel>
  </diagram>
</mxfile>
